<svg width="535.5" height="535.5" xmlns="http://www.w3.org/2000/svg">

 <g>
  <title>background</title>
  <rect fill="none" id="canvas_background" height="402" width="582" y="-1" x="-1"/>
 </g>
 <g>
  <title>Layer 1</title>
  <g id="svg_1">
   <g id="svg_2">
    <path id="svg_3" fill="#fc9f00" d="m439.721,66.708c0,8.976 -1.731,17.442 -5.199,25.398c-3.471,7.956 -8.061,14.994 -13.771,21.114c-5.712,6.12 -12.546,10.914 -20.502,14.382c-7.956,3.468 -16.422,5.202 -25.396,5.202c-8.979,0 -17.442,-1.734 -25.398,-5.202c-7.956,-3.468 -14.892,-8.262 -20.808,-14.382c-5.916,-6.12 -10.608,-13.158 -14.076,-21.114s-5.202,-16.422 -5.202,-25.398s1.734,-17.544 5.202,-25.704s8.16,-15.3 14.076,-21.42s12.852,-10.914 20.808,-14.382c7.956,-3.468 16.422,-5.202 25.398,-5.202s17.439,1.734 25.396,5.202c7.956,3.468 14.79,8.262 20.502,14.382s10.302,13.26 13.771,21.42c3.466,8.16 5.199,16.728 5.199,25.704zm0,201.349c0,9.383 -1.731,18.053 -5.199,26.01c-3.471,7.955 -8.061,14.891 -13.771,20.807s-12.546,10.609 -20.502,14.076c-7.956,3.469 -16.422,5.203 -25.396,5.203c-8.979,0 -17.442,-1.734 -25.398,-5.203c-7.956,-3.467 -14.892,-8.16 -20.808,-14.076s-10.608,-12.852 -14.076,-20.807c-3.468,-7.957 -5.202,-16.627 -5.202,-26.01c0,-8.977 1.734,-17.545 5.202,-25.705c3.468,-8.16 8.16,-15.198 14.076,-21.114s12.852,-10.608 20.808,-14.076c7.956,-3.468 16.422,-5.202 25.398,-5.202s17.439,1.734 25.396,5.202c7.956,3.468 14.79,8.16 20.502,14.076s10.302,12.954 13.771,21.114c3.466,8.16 5.199,16.728 5.199,25.705zm-1.836,201.347c0,8.979 -1.632,17.34 -4.896,25.092s-7.752,14.484 -13.464,20.195c-5.712,5.713 -12.444,10.201 -20.196,13.465s-15.912,4.896 -24.479,4.896c-8.568,0 -16.729,-1.635 -24.48,-4.896c-7.752,-3.264 -14.484,-7.752 -20.196,-13.465c-5.712,-5.711 -10.198,-12.443 -13.464,-20.195c-3.264,-7.752 -4.896,-16.113 -4.896,-25.092c0,-8.568 1.632,-16.729 4.896,-24.479c3.266,-7.752 7.752,-14.586 13.464,-20.502s12.444,-10.51 20.196,-13.771c7.752,-3.264 15.912,-4.896 24.48,-4.896c8.565,0 16.728,1.633 24.479,4.896s14.484,7.854 20.196,13.771c5.712,5.916 10.2,12.75 13.464,20.502s4.896,15.911 4.896,24.479zm-211.751,-402.696c0,8.976 -1.734,17.442 -5.202,25.398s-8.058,14.994 -13.77,21.114s-12.546,10.914 -20.502,14.382c-7.956,3.468 -16.422,5.202 -25.398,5.202s-17.442,-1.734 -25.398,-5.202c-7.956,-3.468 -14.892,-8.262 -20.808,-14.382c-5.916,-6.12 -10.608,-13.158 -14.076,-21.114s-5.202,-16.422 -5.202,-25.398s1.734,-17.544 5.202,-25.704c3.468,-8.16 8.16,-15.3 14.076,-21.42s12.852,-10.914 20.808,-14.382s16.422,-5.202 25.398,-5.202s17.442,1.734 25.398,5.202s14.79,8.262 20.502,14.382s10.302,13.26 13.77,21.42c3.468,8.16 5.202,16.728 5.202,25.704zm0,201.349c0,9.383 -1.734,18.053 -5.202,26.01c-3.468,7.955 -8.058,14.891 -13.77,20.807s-12.546,10.609 -20.502,14.076c-7.956,3.469 -16.422,5.203 -25.398,5.203s-17.442,-1.734 -25.398,-5.203c-7.956,-3.467 -14.892,-8.16 -20.808,-14.076s-10.608,-12.852 -14.076,-20.807c-3.468,-7.957 -5.202,-16.627 -5.202,-26.01c0,-8.977 1.734,-17.545 5.202,-25.705c3.468,-8.16 8.16,-15.198 14.076,-21.114s12.852,-10.608 20.808,-14.076s16.422,-5.202 25.398,-5.202s17.442,1.734 25.398,5.202s14.79,8.16 20.502,14.076s10.302,12.954 13.77,21.114c3.468,8.16 5.202,16.728 5.202,25.705zm0,201.347c0,9.383 -1.734,18.053 -5.202,26.01c-3.468,7.955 -8.058,14.895 -13.77,20.811s-12.546,10.605 -20.502,14.076c-7.956,3.467 -16.422,5.199 -25.398,5.199s-17.442,-1.732 -25.398,-5.199c-7.956,-3.471 -14.892,-8.16 -20.808,-14.076s-10.608,-12.855 -14.076,-20.811c-3.468,-7.957 -5.202,-16.627 -5.202,-26.01c0,-8.977 1.734,-17.545 5.202,-25.705c3.468,-8.16 8.16,-15.197 14.076,-21.113s12.852,-10.605 20.808,-14.074c7.956,-3.471 16.422,-5.201 25.398,-5.201s17.442,1.73 25.398,5.201c7.956,3.469 14.79,8.158 20.502,14.074s10.302,12.953 13.77,21.113c3.468,8.16 5.202,16.729 5.202,25.705z"/>
   </g>
  </g>
  <g id="svg_4"/>
  <g id="svg_5"/>
  <g id="svg_6"/>
  <g id="svg_7"/>
  <g id="svg_8"/>
  <g id="svg_9"/>
  <g id="svg_10"/>
  <g id="svg_11"/>
  <g id="svg_12"/>
  <g id="svg_13"/>
  <g id="svg_14"/>
  <g id="svg_15"/>
  <g id="svg_16"/>
  <g id="svg_17"/>
  <g id="svg_18"/>
 </g>
</svg>